<svg viewBox="0 0 200 200" xmlns="http://www.w3.org/2000/svg">
  <defs>
    <linearGradient id="bgGradient" x1="0%" y1="0%" x2="100%" y2="100%">
      <stop offset="0%" style="stop-color:#3B82F6;stop-opacity:1" />
      <stop offset="50%" style="stop-color:#6366F1;stop-opacity:1" />
      <stop offset="100%" style="stop-color:#8B5CF6;stop-opacity:1" />
    </linearGradient>
    
    <linearGradient id="letterGradient" x1="0%" y1="0%" x2="100%" y2="100%">
      <stop offset="0%" style="stop-color:#FFFFFF;stop-opacity:1" />
      <stop offset="50%" style="stop-color:#F0F9FF;stop-opacity:0.95" />
      <stop offset="100%" style="stop-color:#DBEAFE;stop-opacity:0.9" />
    </linearGradient>
    
    <filter id="glow">
      <feGaussianBlur stdDeviation="3" result="coloredBlur"/>
      <feMerge>
        <feMergeNode in="coloredBlur"/>
        <feMergeNode in="SourceGraphic"/>
      </feMerge>
    </filter>
    
    <filter id="shadow">
      <feDropShadow dx="0" dy="6" stdDeviation="8" flood-opacity="0.25"/>
    </filter>
  </defs>
  
  <!-- Background Circle -->
  <circle cx="100" cy="100" r="95" fill="url(#bgGradient)" filter="url(#shadow)"/>
  
  <!-- Decorative inner circle -->
  <circle cx="100" cy="100" r="75" fill="none" stroke="#FFFFFF" stroke-width="0.5" opacity="0.3"/>
  
  <!-- Modern U Letter with rounded design -->
  <g filter="url(#glow)">
    <!-- Left part of U -->
    <path d="M 55 55 L 55 95 C 55 120 72 135 100 135 C 128 135 145 120 145 95 L 145 55 L 130 55 L 130 95 C 130 112 118 120 100 120 C 82 120 70 112 70 95 L 70 55 Z" 
          fill="url(#letterGradient)" 
          stroke="#FFFFFF" 
          stroke-width="1.5"
          stroke-linejoin="round"
          stroke-linecap="round"/>
    
    <!-- Inner highlight -->
    <path d="M 75 60 L 75 95 C 75 108 85 115 100 115 C 115 115 125 108 125 95 L 125 60" 
          fill="none" 
          stroke="#FFFFFF" 
          stroke-width="2"
          opacity="0.4"
          stroke-linecap="round"/>
  </g>
  
  <!-- Decorative dots -->
  <circle cx="100" cy="160" r="3" fill="#FFFFFF" opacity="0.6"/>
  <circle cx="90" cy="163" r="2" fill="#FFFFFF" opacity="0.4"/>
  <circle cx="110" cy="163" r="2" fill="#FFFFFF" opacity="0.4"/>
</svg>